<?xml version="1.0" encoding="UTF-8" standalone="no"?>
<svg
   fill-rule="evenodd"
   stroke-linejoin="round"
   stroke-miterlimit="2"
   clip-rule="evenodd"
   viewBox="0 0 24 24"
   version="1.1"
   id="svg8"
   sodipodi:docname="instagram.svg"
   inkscape:version="1.2.2 (b0a8486541, 2022-12-01)"
   xmlns:inkscape="http://www.inkscape.org/namespaces/inkscape"
   xmlns:sodipodi="http://sodipodi.sourceforge.net/DTD/sodipodi-0.dtd"
   xmlns="http://www.w3.org/2000/svg"
   xmlns:svg="http://www.w3.org/2000/svg">
  <defs
     id="defs12" />
  <sodipodi:namedview
     id="namedview10"
     pagecolor="#ffffff"
     bordercolor="#000000"
     borderopacity="0.25"
     inkscape:showpageshadow="2"
     inkscape:pageopacity="0.0"
     inkscape:pagecheckerboard="0"
     inkscape:deskcolor="#d1d1d1"
     showgrid="false"
     inkscape:zoom="34.25"
     inkscape:cx="9.9562044"
     inkscape:cy="12"
     inkscape:window-width="1920"
     inkscape:window-height="963"
     inkscape:window-x="0"
     inkscape:window-y="1112"
     inkscape:window-maximized="1"
     inkscape:current-layer="g6" />
  <g
     transform="translate(-40 -40)"
     id="g6">
    <rect
       width="24"
       height="24"
       x="40"
       y="40"
       fill="none"
       id="rect2" />
    <path
       fill="#2c2c2c"
       d="M110.9,199C110.9,195.744 108.256,193.1 105,193.1C105,193.1 95,193.1 95,193.1C91.744,193.1 89.1,195.744 89.1,199C89.1,199 89.1,209 89.1,209C89.1,212.256 91.744,214.9 95,214.9C95,214.9 105,214.9 105,214.9C108.256,214.9 110.9,212.256 110.9,209L110.9,199ZM109.1,199L109.1,209C109.1,211.263 107.263,213.1 105,213.1L95,213.1C92.737,213.1 90.9,211.263 90.9,209L90.9,199C90.9,196.737 92.737,194.9 95,194.9L105,194.9C107.263,194.9 109.1,196.737 109.1,199ZM104.89,203.238C104.575,201.109 102.891,199.425 100.762,199.11C100.524,199.074 100.284,199.057 100.043,199.057C97.355,199.057 95.143,201.269 95.143,203.957C95.143,206.645 97.355,208.857 100.043,208.857C102.731,208.857 104.943,206.645 104.943,203.957C104.943,203.716 104.926,203.476 104.89,203.238ZM103.11,203.502C103.132,203.653 103.143,203.805 103.143,203.957C103.143,205.657 101.744,207.057 100.043,207.057C98.343,207.057 96.943,205.657 96.943,203.957C96.943,202.256 98.343,200.857 100.043,200.857C100.195,200.857 100.347,200.868 100.498,200.89C101.845,201.09 102.91,202.155 103.11,203.502ZM105.5,197.6C105.997,197.6 106.4,198.003 106.4,198.5C106.4,198.997 105.997,199.4 105.5,199.4C105.003,199.4 104.6,198.997 104.6,198.5C104.6,198.003 105.003,197.6 105.5,197.6Z"
       transform="translate(-48 -152)"
       id="path4"
       style="fill:#e6e6e6" />
  </g>
</svg>
